<?xml version="1.0" standalone="no"?>
<!DOCTYPE svg PUBLIC "-//W3C//DTD SVG 20010904//EN"
 "http://www.w3.org/TR/2001/REC-SVG-20010904/DTD/svg10.dtd">
<svg version="1.0" xmlns="http://www.w3.org/2000/svg"
 width="500.000000pt" height="500.000000pt" viewBox="0 0 500.000000 500.000000"
 preserveAspectRatio="xMidYMid meet">

<g transform="translate(0.000000,500.000000) scale(0.100000,-0.100000)"
fill="#000000" stroke="none">
<path d="M2270 3590 c-435 -93 -775 -417 -886 -842 -8 -33 -20 -112 -25 -176
-42 -484 207 -928 639 -1142 174 -86 322 -115 546 -107 163 5 219 16 356 65
317 112 593 399 694 720 132 420 24 866 -285 1173 -169 168 -378 276 -613 318
-95 17 -328 12 -426 -9z m405 -64 c235 -42 445 -154 605 -323 407 -427 393
-1096 -32 -1509 -207 -202 -457 -304 -744 -304 -339 0 -660 159 -866 430 -63
82 -151 262 -177 360 -181 679 328 1355 1024 1359 61 1 146 -5 190 -13z"/>
<path d="M2380 3157 l0 -63 -57 -18 c-32 -10 -87 -33 -123 -52 l-64 -34 -48
47 -47 46 -81 -78 -80 -79 46 -47 47 -48 -36 -68 c-19 -37 -43 -94 -52 -125
l-16 -57 -62 -3 -62 -3 -3 -112 -3 -112 67 -3 66 -3 22 -70 c13 -39 36 -94 52
-123 l29 -51 -43 -44 c-23 -23 -42 -47 -42 -53 0 -5 34 -43 75 -84 l75 -74 48
47 47 47 33 -20 c45 -27 141 -66 185 -74 l37 -7 0 -64 0 -65 115 0 115 0 0 64
0 65 55 15 c30 9 84 32 121 51 l68 36 47 -47 48 -47 75 73 c42 40 76 80 76 89
0 8 -18 34 -41 57 l-41 42 27 46 c15 26 38 79 50 119 l23 72 44 3 c94 5 89 -1
86 120 l-3 107 -65 3 -65 3 -13 52 c-6 29 -28 85 -48 125 l-37 73 41 42 c23
24 42 47 42 53 0 12 -142 154 -155 154 -5 0 -28 -19 -52 -42 l-42 -41 -70 35
c-38 20 -95 42 -125 49 l-56 12 0 64 0 63 -115 0 -115 0 0 -63z m200 -9 c0
-29 4 -59 8 -66 5 -6 35 -19 68 -28 32 -8 92 -33 133 -55 l74 -40 46 45 47 46
62 -63 62 -63 -44 -43 -43 -43 47 -93 c26 -51 51 -114 54 -139 l7 -46 65 0 64
0 0 -90 0 -90 -64 0 -63 0 -6 -38 c-8 -46 -53 -158 -78 -194 -27 -37 -24 -47
23 -95 l42 -43 -62 -62 -62 -62 -45 44 -46 45 -32 -19 c-77 -46 -145 -74 -219
-90 -27 -6 -28 -9 -28 -71 l0 -65 -90 0 -90 0 0 65 0 64 -42 11 c-63 16 -116
38 -177 72 l-54 30 -46 -46 -47 -46 -62 63 -62 63 44 43 45 44 -44 81 c-24 45
-45 90 -48 101 -3 11 -11 39 -17 63 l-11 42 -64 0 -65 0 0 85 0 84 66 3 66 3
22 75 c12 41 37 103 56 137 l34 63 -44 45 -44 45 62 62 62 62 45 -44 45 -44
28 17 c55 36 147 77 199 87 l53 11 0 65 0 64 85 0 85 0 0 -52z"/>
<path d="M2419 3000 c-174 -27 -343 -156 -414 -315 -64 -143 -60 -298 11 -453
25 -56 51 -91 106 -146 116 -114 218 -156 378 -156 150 0 274 52 381 159 171
171 205 413 90 639 -33 64 -143 175 -208 210 -105 55 -234 79 -344 62z m183
-31 c166 -35 314 -160 379 -320 33 -82 38 -235 11 -326 -74 -244 -325 -406
-564 -365 -261 45 -439 248 -439 502 0 330 295 575 613 509z"/>
<path d="M2434 2780 c-11 -4 -34 -24 -52 -44 -79 -91 -39 -225 78 -256 146
-39 259 136 163 251 -44 52 -128 74 -189 49z m139 -35 c58 -41 76 -138 35
-190 -24 -31 -74 -55 -113 -55 -93 0 -155 114 -109 201 30 60 131 83 187 44z"/>
<path d="M2310 2449 c-75 -30 -120 -111 -128 -226 l-5 -83 319 2 319 3 0 65
c-1 95 -12 136 -48 177 -34 39 -97 72 -136 73 -14 0 -35 -10 -48 -22 -16 -14
-40 -23 -76 -26 -46 -4 -57 -1 -84 22 -32 27 -69 32 -113 15z m155 -65 c49 -9
100 3 133 31 25 21 34 23 63 15 42 -12 92 -62 113 -112 9 -21 16 -65 16 -98
l0 -60 -290 0 -290 0 0 67 c0 109 47 177 138 202 21 6 33 3 55 -15 15 -13 43
-26 62 -30z"/>
</g>
</svg>
