<?xml version="1.0" standalone="no"?>
<!DOCTYPE svg PUBLIC "-//W3C//DTD SVG 20010904//EN"
 "http://www.w3.org/TR/2001/REC-SVG-20010904/DTD/svg10.dtd">
<svg version="1.0" xmlns="http://www.w3.org/2000/svg"
 width="500.000000pt" height="500.000000pt" viewBox="0 0 500.000000 500.000000"
 preserveAspectRatio="xMidYMid meet">

<g transform="translate(0.000000,500.000000) scale(0.100000,-0.100000)"
fill="#000000" stroke="none">
<path d="M2270 3590 c-435 -93 -775 -417 -886 -842 -8 -33 -20 -112 -25 -176
-42 -484 207 -928 639 -1142 174 -86 322 -115 546 -107 163 5 219 16 356 65
317 112 593 399 694 720 132 420 24 866 -285 1173 -169 168 -378 276 -613 318
-95 17 -328 12 -426 -9z m405 -64 c235 -42 445 -154 605 -323 407 -427 393
-1096 -32 -1509 -207 -202 -457 -304 -744 -304 -339 0 -660 159 -866 430 -63
82 -151 262 -177 360 -181 679 328 1355 1024 1359 61 1 146 -5 190 -13z"/>
<path d="M2132 3010 c-201 -207 -233 -245 -230 -268 2 -20 9 -28 28 -30 22 -2
62 34 259 237 203 210 232 244 229 268 -2 21 -9 29 -28 31 -22 2 -61 -34 -258
-238z"/>
<path d="M2571 3236 c-7 -8 -10 -23 -7 -33 4 -10 111 -126 239 -257 216 -222
235 -239 260 -232 57 14 38 41 -203 292 -231 241 -261 264 -289 230z"/>
<path d="M1640 2601 c-13 -25 -13 -197 0 -222 9 -15 22 -19 63 -19 l52 0 73
-299 c40 -164 78 -303 85 -310 17 -17 1147 -16 1169 2 10 7 43 124 89 310 l74
297 45 0 c71 0 71 1 68 136 l-3 119 -852 3 c-835 2 -852 2 -863 -17z m1650
-111 l0 -50 -790 0 -790 0 0 50 0 50 790 0 790 0 0 -50z m-1280 -185 l0 -55
-74 0 -74 0 -11 44 c-6 25 -11 50 -11 55 0 7 32 11 85 11 l85 0 0 -55z m260 0
l0 -55 -85 0 -85 0 0 55 0 55 85 0 85 0 0 -55z m250 0 l0 -55 -85 0 -85 0 0
55 0 55 85 0 85 0 0 -55z m250 0 l0 -55 -85 0 -85 0 0 55 0 55 85 0 85 0 0
-55z m220 0 l0 -55 -70 0 -70 0 0 55 0 55 70 0 70 0 0 -55z m164 28 c-20 -78
-19 -78 -52 -81 l-32 -3 0 55 0 56 45 0 c44 0 45 -1 39 -27z m-1144 -243 l0
-80 -44 0 -44 0 -16 65 c-24 97 -25 95 44 95 l60 0 0 -80z m258 -2 l3 -78 -86
0 -85 0 0 80 0 81 83 -3 82 -3 3 -77z m252 2 l0 -80 -85 0 -85 0 0 80 0 80 85
0 85 0 0 -80z m250 0 l0 -80 -85 0 -85 0 0 80 0 80 85 0 85 0 0 -80z m220 0
l0 -80 -70 0 -70 0 0 73 c0 41 3 77 7 80 3 4 35 7 70 7 l63 0 0 -80z m120 73
c0 -5 -9 -39 -19 -78 l-19 -70 -1 78 c-1 71 1 77 19 77 11 0 20 -3 20 -7z
m-1100 -293 c0 -43 -3 -50 -20 -50 -14 0 -22 11 -29 38 -16 56 -14 62 19 62
29 0 30 -1 30 -50z m258 3 l-3 -48 -82 -3 -83 -3 0 51 0 50 86 0 85 0 -3 -47z
m252 -3 l0 -50 -85 0 -85 0 0 50 0 50 85 0 85 0 0 -50z m250 0 l0 -50 -85 0
-85 0 0 50 0 50 85 0 85 0 0 -50z m220 0 l0 -51 -67 3 -68 3 -3 48 -3 47 70 0
71 0 0 -50z"/>
</g>
</svg>
