<?xml version="1.0" standalone="no"?>
<!DOCTYPE svg PUBLIC "-//W3C//DTD SVG 20010904//EN"
 "http://www.w3.org/TR/2001/REC-SVG-20010904/DTD/svg10.dtd">
<svg version="1.0" xmlns="http://www.w3.org/2000/svg"
 width="500.000000pt" height="500.000000pt" viewBox="0 0 500.000000 500.000000"
 preserveAspectRatio="xMidYMid meet">

<g transform="translate(0.000000,500.000000) scale(0.100000,-0.100000)"
fill="#000000" stroke="none">
<path d="M2350 3774 c-285 -35 -551 -165 -755 -369 -180 -180 -293 -388 -352
-650 -25 -112 -25 -388 0 -500 41 -183 96 -311 195 -460 191 -287 512 -494
852 -550 774 -125 1480 476 1480 1260 0 598 -413 1112 -1000 1246 -83 19 -338
33 -420 23z m345 -90 c302 -52 578 -221 763 -469 68 -90 155 -267 186 -376
136 -477 -34 -992 -423 -1285 -479 -361 -1144 -318 -1566 100 -472 468 -474
1228 -6 1697 172 171 399 290 636 332 109 20 300 20 410 1z"/>
<path d="M1854 3283 c-34 -7 -105 -73 -125 -117 -23 -50 -24 -95 -4 -144 10
-24 99 -121 258 -279 l242 -243 -247 -247 c-203 -205 -248 -255 -257 -288 -15
-56 -13 -84 8 -130 38 -84 129 -134 219 -120 43 6 60 21 300 257 l255 249 246
-244 c251 -251 273 -267 346 -267 98 0 194 100 195 203 0 73 -24 104 -270 352
l-240 241 240 239 c261 261 277 283 268 370 -8 63 -49 119 -111 150 -60 30
-107 31 -162 6 -25 -12 -126 -105 -274 -254 l-234 -236 -241 236 c-150 147
-256 243 -281 254 -38 18 -83 22 -131 12z"/>
</g>
</svg>
