<?xml version="1.0" standalone="no"?>
<!DOCTYPE svg PUBLIC "-//W3C//DTD SVG 20010904//EN"
 "http://www.w3.org/TR/2001/REC-SVG-20010904/DTD/svg10.dtd">
<svg version="1.0" xmlns="http://www.w3.org/2000/svg"
 width="500.000000pt" height="500.000000pt" viewBox="0 0 500.000000 500.000000"
 preserveAspectRatio="xMidYMid meet">
<metadata>
Created by potrace 1.16, written by Peter Selinger 2001-2019
</metadata>
<g transform="translate(0.000000,500.000000) scale(0.100000,-0.100000)"
fill="#000000" stroke="none">
<path d="M2435 3713 c-304 -17 -583 -141 -795 -353 -163 -163 -282 -379 -330
-595 -36 -159 -29 -414 15 -575 127 -466 506 -808 983 -886 114 -19 327 -14
437 10 502 108 877 508 956 1019 15 96 7 314 -15 415 -128 591 -657 999 -1251
965z m320 -92 c219 -54 410 -162 559 -315 480 -495 430 -1280 -108 -1705 -228
-180 -538 -272 -812 -241 -129 14 -204 32 -315 75 -349 134 -608 434 -700 808
-29 119 -36 325 -15 446 85 483 454 854 941 946 110 20 341 13 450 -14z"/>
<path d="M2059 3177 c-117 -40 -210 -138 -244 -259 -14 -49 -16 -110 -13 -440
l3 -383 32 -67 c54 -114 145 -187 269 -213 92 -20 702 -21 785 -1 114 26 220
109 267 210 38 80 44 153 40 517 -5 382 -7 399 -72 493 -40 58 -109 114 -176
142 -41 17 -77 19 -435 22 -384 2 -391 2 -456 -21z m834 -111 c67 -20 121 -68
154 -134 l28 -57 0 -370 c0 -426 -1 -430 -84 -508 -77 -72 -78 -72 -501 -72
l-375 0 -51 27 c-29 15 -66 45 -83 67 -61 76 -62 89 -59 502 3 364 4 375 25
415 28 52 93 109 147 128 59 21 731 23 799 2z"/>
<path d="M2824 2946 c-82 -70 23 -193 108 -126 64 50 22 150 -62 150 -10 0
-31 -11 -46 -24z"/>
<path d="M2412 2844 c-75 -20 -109 -39 -167 -98 -152 -152 -125 -421 54 -535
77 -50 131 -64 221 -59 98 6 169 39 234 108 65 69 89 127 94 225 5 91 -16 161
-68 232 -34 46 -115 104 -170 121 -56 18 -141 21 -198 6z m152 -118 c67 -20
114 -61 142 -120 96 -207 -111 -411 -314 -310 -194 97 -159 383 53 435 47 11
68 10 119 -5z"/>
</g>
</svg>
