<?xml version="1.0" standalone="no"?>
<!DOCTYPE svg PUBLIC "-//W3C//DTD SVG 20010904//EN"
 "http://www.w3.org/TR/2001/REC-SVG-20010904/DTD/svg10.dtd">
<svg version="1.0" xmlns="http://www.w3.org/2000/svg"
 width="500.000000pt" height="500.000000pt" viewBox="0 0 500.000000 500.000000"
 preserveAspectRatio="xMidYMid meet">

<g transform="translate(0.000000,500.000000) scale(0.100000,-0.100000)"
fill="#000000" stroke="none">
<path d="M2270 3590 c-435 -93 -775 -417 -886 -842 -8 -33 -20 -112 -25 -176
-42 -484 207 -928 639 -1142 174 -86 322 -115 546 -107 163 5 219 16 356 65
317 112 593 399 694 720 132 420 24 866 -285 1173 -169 168 -378 276 -613 318
-95 17 -328 12 -426 -9z m405 -64 c235 -42 445 -154 605 -323 407 -427 393
-1096 -32 -1509 -207 -202 -457 -304 -744 -304 -339 0 -660 159 -866 430 -63
82 -151 262 -177 360 -181 679 328 1355 1024 1359 61 1 146 -5 190 -13z"/>
<path d="M2246 3129 c-25 -20 -26 -23 -26 -140 l0 -119 70 0 69 0 3 68 3 67
353 3 352 2 0 -495 0 -495 -355 0 -355 0 0 70 0 70 -70 0 -70 0 0 -114 c0 -99
3 -117 21 -140 l20 -26 445 0 c443 0 475 2 496 34 4 6 8 275 8 597 0 578 0
587 -21 613 l-20 26 -448 0 c-438 0 -449 0 -475 -21z"/>
<path d="M1932 2677 c-111 -111 -132 -137 -132 -162 0 -25 22 -52 135 -165
l135 -134 50 49 50 49 -62 63 -62 63 337 0 337 0 0 70 0 70 -342 0 -342 0 64
65 65 65 -50 50 -50 50 -133 -133z"/>
</g>
</svg>
