<?xml version="1.0" standalone="no"?>
<!DOCTYPE svg PUBLIC "-//W3C//DTD SVG 20010904//EN"
 "http://www.w3.org/TR/2001/REC-SVG-20010904/DTD/svg10.dtd">
<svg version="1.0" xmlns="http://www.w3.org/2000/svg"
 width="500.000000pt" height="500.000000pt" viewBox="0 0 500.000000 500.000000"
 preserveAspectRatio="xMidYMid meet">

<g transform="translate(0.000000,500.000000) scale(0.100000,-0.100000)"
fill="#000000" stroke="none">
<path d="M2306 3614 c-409 -74 -749 -366 -880 -754 -100 -299 -63 -654 96
-925 57 -97 97 -148 186 -238 180 -183 418 -295 677 -318 356 -32 685 88 925
338 187 194 286 405 310 666 51 533 -259 1018 -761 1190 -158 55 -385 71 -553
41z m286 -64 c246 -23 470 -127 644 -297 207 -202 315 -456 315 -743 1 -167
-22 -281 -87 -431 -28 -68 -110 -209 -119 -209 -2 0 -35 31 -73 68 -47 47 -93
80 -144 105 -131 65 -166 69 -658 65 l-435 -3 -80 -28 c-95 -34 -199 -101
-256 -165 l-41 -47 -24 30 c-42 52 -133 247 -154 330 -94 369 7 750 270 1015
175 176 399 287 630 309 47 5 90 9 95 10 6 0 58 -4 117 -9z"/>
<path d="M2371 3204 c-122 -33 -218 -97 -294 -196 -120 -159 -138 -357 -48
-543 66 -139 160 -221 304 -270 184 -61 398 -11 537 125 211 209 206 549 -11
757 -128 122 -321 172 -488 127z"/>
</g>
</svg>
