<?xml version="1.0" standalone="no"?>
<!DOCTYPE svg PUBLIC "-//W3C//DTD SVG 20010904//EN"
 "http://www.w3.org/TR/2001/REC-SVG-20010904/DTD/svg10.dtd">
<svg version="1.0" xmlns="http://www.w3.org/2000/svg"
 width="500.000000pt" height="500.000000pt" viewBox="0 0 500.000000 500.000000"
 preserveAspectRatio="xMidYMid meet">
<metadata>
Created by potrace 1.16, written by Peter Selinger 2001-2019
</metadata>
<g transform="translate(0.000000,500.000000) scale(0.100000,-0.100000)"
fill="#000000" stroke="none">
<path d="M2370 4030 c-592 -43 -1125 -456 -1323 -1026 -63 -180 -80 -286 -80
-489 -1 -212 16 -323 73 -496 80 -243 193 -424 379 -609 295 -294 617 -433
1036 -447 146 -5 187 -2 295 16 225 39 459 135 635 259 108 77 272 237 349
342 291 392 378 881 242 1352 -110 377 -376 711 -722 906 -269 152 -561 215
-884 192z m460 -113 c273 -65 495 -190 695 -391 168 -169 278 -345 350 -560
128 -381 104 -756 -71 -1111 -197 -398 -557 -680 -994 -779 -641 -144 -1312
177 -1609 771 -104 209 -140 358 -148 609 -6 199 5 295 53 461 26 92 103 263
157 348 217 347 578 592 977 665 155 29 442 22 590 -13z"/>
<path d="M2719 3161 c-149 -48 -241 -177 -241 -333 l0 -68 -32 0 c-53 1 -201
37 -279 70 -102 42 -211 116 -311 211 l-85 80 -22 -71 c-39 -129 -14 -252 72
-345 41 -45 42 -45 15 -45 -15 0 -43 7 -63 15 -19 8 -38 15 -41 15 -2 0 -1
-23 2 -52 11 -80 43 -143 97 -192 45 -41 123 -85 151 -87 7 0 2 -5 -12 -10
-14 -6 -45 -9 -69 -7 -25 1 -46 -2 -48 -8 -6 -19 63 -119 103 -147 22 -16 78
-41 124 -56 l83 -28 -47 -33 c-96 -65 -246 -109 -381 -110 -51 0 -57 -2 -45
-14 22 -21 128 -63 233 -92 76 -22 120 -27 252 -31 148 -4 168 -2 260 21 416
107 689 433 737 879 l11 112 51 50 c58 57 102 115 87 115 -5 0 -22 -5 -38 -11
-35 -13 -113 -28 -113 -22 0 3 11 14 25 25 30 23 79 93 90 127 6 21 5 23 -11
16 -11 -4 -57 -20 -102 -36 l-84 -29 -36 29 c-100 78 -219 100 -333 62z"/>
</g>
</svg>
